#!OML:ASF H:\ManfredETheater\Project 1\Capture day 1\Session 1\subject.ASF
:FULLY-SPECIFIED
:DEGREES
47
root 12.217 15.7122 19.5226 -172.023 -26.9212 180.702
lowerback 18.8099 3.46814 -4.49321
upperback 1.74842 3.19572 -1.54116
thorax -8.81042 1.53758 0.0617201
lowerneck -17.1477 -6.83853 -4.86387
upperneck 5.55394 -9.37682 10.3755
head 5.18488 -4.12732 3.11603
rclavicle 4.8901e-014 1.94809e-014
rhumerus -38.4706 6.32784 -83.8558
rradius 77.7476
rwrist -4.81756
rhand -23.0461 4.20836
rfingers 7.12502
rthumb 3.39854 -25.7443
lclavicle 4.8901e-014 1.94809e-014
lhumerus -24.0816 -13.7491 94.089
lradius 84.6907
lwrist 16.9919
lhand -22.3522 -24.429
lfingers 7.12502
lthumb 4.06871 5.51189
rfemur -22.5674 -20.1077 7.24914
rtibia 118.939
rfoot -7.39058 0.707793
rtoes -14.7428
lfemur -54.1215 -6.00264 -26.5982
ltibia 60.9596
lfoot -10.9049 -8.21765
ltoes 7.5321
48
root 12.1379 15.7721 19.1639 -171.934 -27.9412 180.337
lowerback 19.0558 3.06099 -4.85698
upperback 1.60637 2.56816 -1.5514
thorax -9.09337 1.25904 0.40752
lowerneck -17.4043 -6.70997 -4.90688
upperneck 5.83774 -9.24246 10.5807
head 5.3188 -4.03481 3.19307
rclavicle 2.08724e-014 3.02153e-014
rhumerus -39.5801 6.07239 -81.3968
rradius 80.3435
rwrist -5.07649
rhand -22.0735 4.59837
rfingers 7.12502
rthumb 4.33781 -25.3372
lclavicle 2.08724e-014 3.02153e-014
lhumerus -18.7637 -17.0744 93.6386
lradius 85.4191
lwrist 15.3583
lhand -22.6608 -24.5424
lfingers 7.12502
lthumb 3.77068 5.40403
rfemur -27.6737 -23.7585 4.34109
rtibia 124.466
rfoot -9.28947 2.23044
rtoes -13.1282
lfemur -52.6085 -6.38442 -26.8506
ltibia 61.1753
lfoot -12.316 -8.47361
ltoes 8.0388
49
root 12.062 15.8351 18.8107 -171.818 -29.0688 180.086
lowerback 19.26 2.52577 -5.07104
upperback 1.43546 1.81475 -1.5116
thorax -9.36675 0.921708 0.76426
lowerneck -17.5138 -6.50023 -4.86867
upperneck 5.9795 -8.99091 10.6457
head 5.36358 -3.90068 3.23226
rclavicle 1.31198e-014 4.53229e-014
rhumerus -40.4941 6.01755 -78.6519
rradius 83.7323
rwrist -5.13339
rhand -20.8987 5.03428
rfingers 7.12502
rthumb 5.47216 -24.8751
lclavicle 1.31198e-014 4.53229e-014
lhumerus -13.6611 -19.9014 92.4893
lradius 86.9579
lwrist 14.077
lhand -23.016 -24.3884
lfingers 7.12502
lthumb 3.42761 5.56379
rfemur -32.9268 -27.9364 1.55639
rtibia 129.275
rfoot -11.074 3.63788
rtoes -11.895
lfemur -51.1352 -6.72958 -26.968
ltibia 61.2337
lfoot -13.607 -8.91062
ltoes 8.69326
50
root 11.9886 15.9057 18.4586 -171.691 -30.2984 179.928
lowerback 19.4178 1.87169 -5.1798
upperback 1.23967 0.939889 -1.41584
thorax -9.62588 0.528815 1.16232
lowerneck -17.5213 -6.22857 -4.75524
upperneck 6.10014 -8.65187 10.5635
head 5.36702 -3.73397 3.22585
rclavicle -6.7388e-014 -1.27222e-014
rhumerus -41.0037 6.09247 -75.5812
rradius 87.5316
rwrist -5.06056
rhand -19.6757 5.42509
rfingers 7.12502
rthumb 6.65294 -24.4504
lclavicle -6.7388e-014 -1.27222e-014
lhumerus -8.72655 -22.1279 90.6782
lradius 89.17
lwrist 13.5208
lhand -23.2893 -24.0246
lfingers 7.12502
lthumb 3.16375 5.93168
rfemur -38.3728 -32.4662 -0.848419
rtibia 133.262
rfoot -12.7156 4.94358
rtoes -11.3018
lfemur -49.6443 -7.0174 -26.9726
ltibia 61.1065
lfoot -14.7732 -9.52253
ltoes 9.54903
51
root 11.9155 15.9881 18.1051 -171.572 -31.5326 179.886
lowerback 19.502 1.15009 -5.21382
upperback 1.02291 0.00825327 -1.25062
thorax -9.85529 0.111654 1.61515
lowerneck -17.5034 -5.9249 -4.57495
upperneck 6.33215 -8.27026 10.3317
head 5.38799 -3.54953 3.1661
rclavicle 8.56762e-014 -4.13472e-014
rhumerus -40.9619 6.18852 -72.1393
rradius 91.3936
rwrist -4.93292
rhand -18.562 5.68577
rfingers 7.12502
rthumb 7.72793 -24.153
lclavicle 8.56762e-014 -4.13472e-014
lhumerus -3.91779 -23.6928 88.2807
lradius 91.8604
lwrist 13.8769
lhand -23.3835 -23.5067
lfingers 7.12502
lthumb 3.07273 6.45091
rfemur -44.2539 -36.8642 -2.41643
rtibia 136.351
rfoot -14.0517 6.18539
rtoes -11.2365
lfemur -48.1052 -7.1767 -26.8493
ltibia 60.7633
lfoot -15.7997 -10.2381
ltoes 10.5259
52
root 11.8412 16.0884 17.7481 -171.525 -32.7035 180.039
lowerback 19.5121 0.400991 -5.1461
upperback 0.789245 -0.919773 -0.998081
thorax -10.0532 -0.303087 2.10772
lowerneck -17.5149 -5.61114 -4.33934
upperneck 6.7635 -7.88087 9.97484
head 5.46891 -3.35897 3.05695
rclavicle -1.15295e-014 -3.97569e-015
rhumerus -40.3138 6.2183 -68.3372
rradius 95.0385
rwrist -4.81924
rhand -17.6502 5.72994
rfingers 7.12502
rthumb 8.60788 -24.0746
lclavicle -1.15295e-014 -3.97569e-015
lhumerus 0.733238 -24.55 85.401
lradius 94.8372
lwrist 15.0611
lhand -23.2868 -22.853
lfingers 7.12502
lthumb 3.16612 7.10325
rfemur -50.7996 -40.556 -2.64516
rtibia 138.483
rfoot -14.9827 7.262
rtoes -11.715
lfemur -46.4703 -7.16934 -26.5233
ltibia 60.1601
lfoot -16.6722 -10.9989
ltoes 11.499
53
root 11.7633 16.2137 17.3864 -171.625 -33.7332 180.443
lowerback 19.4765 -0.327921 -4.96788
upperback 0.553754 -1.7816 -0.643603
thorax -10.2235 -0.687974 2.63189
lowerneck -17.602 -5.30753 -4.08356
upperneck 7.43355 -7.50957 9.53253
head 5.63637 -3.17218 2.91305
rclavicle 5.36719e-015 -3.18055e-015
rhumerus -39.0763 6.11954 -64.219
rradius 98.2829
rwrist -4.82234
rhand -16.982 5.52931
rfingers 7.12502
rthumb 9.25269 -24.2477
lclavicle 5.36719e-015 -3.18055e-015
lhumerus 5.14517 -24.6807 82.178
lradius 97.916
lwrist 16.7327
lhand -23.0684 -22.0066
lfingers 7.12502
lthumb 3.37704 7.94641
rfemur -58.0127 -42.96 -1.36027
rtibia 139.635
rfoot -15.4368 8.04231
rtoes -12.6051
lfemur -44.656 -6.97305 -25.9463
ltibia 59.2386
lfoot -17.3602 -11.7187
ltoes 12.3037
